<svg xmlns="http://www.w3.org/2000/svg" xmlns:xlink="http://www.w3.org/1999/xlink" width="77" height="40" viewBox="0 0 77 40">
    <defs>
        <rect id="a" width="77" height="40" rx="2"/>
    </defs>
    <g fill="none" fill-rule="evenodd">
        <g>
            <use fill="#3B5999" xlink:href="#a"/>
            <rect width="76" height="39" x=".5" y=".5" stroke="#162839" stroke-opacity=".1" rx="2"/>
        </g>
        <path fill="#FFF" fill-rule="nonzero" d="M45.4 12H32.6c-.88 0-1.6.72-1.6 1.6v12.8c0 .88.72 1.6 1.6 1.6h12.8c.88 0 1.6-.72 1.6-1.6V13.6c0-.88-.72-1.6-1.6-1.6zm-.8 1.6V16H43c-.48 0-.8.32-.8.8v1.6h2.4v2.4h-2.4v5.6h-2.4v-5.6h-1.6v-2.4h1.6v-2c0-1.52 1.28-2.8 2.8-2.8h2z"/>
    </g>
</svg>
