<svg xmlns="http://www.w3.org/2000/svg" xmlns:xlink="http://www.w3.org/1999/xlink" width="77" height="40" viewBox="0 0 77 40">
    <defs>
        <rect id="a" width="77" height="40" rx="2"/>
    </defs>
    <g fill="none" fill-rule="evenodd">
        <g>
            <use fill="#E4405F" xlink:href="#a"/>
            <rect width="76" height="39" x=".5" y=".5" stroke="#162839" stroke-opacity=".1" rx="2"/>
        </g>
        <g fill="#FFF" fill-rule="nonzero" transform="translate(31 12)">
            <path d="M7.906 3.984A4.023 4.023 0 0 0 3.89 8a4.003 4.003 0 0 0 4.016 4.016A4.023 4.023 0 0 0 11.922 8c0-2.196-1.82-4.016-4.016-4.016zm0 6.589A2.584 2.584 0 0 1 5.333 8a2.584 2.584 0 0 1 2.573-2.573A2.584 2.584 0 0 1 10.478 8a2.584 2.584 0 0 1-2.572 2.573z"/>
            <circle cx="12.078" cy="3.89" r="1"/>
            <path d="M14.431 1.537C13.616.69 12.455.251 11.137.251H4.675C1.945.251.125 2.071.125 4.8v6.431c0 1.35.44 2.51 1.318 3.357.847.816 1.977 1.224 3.263 1.224h6.4c1.349 0 2.478-.44 3.294-1.224.847-.815 1.286-1.976 1.286-3.325V4.8c0-1.318-.439-2.447-1.255-3.263zm-.125 9.726c0 .972-.345 1.757-.91 2.29-.565.533-1.349.816-2.29.816h-6.4c-.941 0-1.726-.283-2.29-.816-.565-.565-.847-1.35-.847-2.322V4.8c0-.941.282-1.725.847-2.29.533-.534 1.349-.816 2.29-.816h6.463c.94 0 1.725.282 2.29.847.533.565.847 1.35.847 2.259v6.463z"/>
        </g>
    </g>
</svg>
