<svg xmlns="http://www.w3.org/2000/svg" width="21" height="19" viewBox="0 0 21 19">
    <g fill="none" fill-rule="nonzero">
        <path fill="#FFF" d="M20.308.7l-3.206 16.834s-.449 1.168-1.682.608l-7.4-5.908-2.69-1.354L.8 9.293s-.695-.257-.762-.817c-.067-.56.784-.864.784-.864L18.83.257c-.001 0 1.479-.678 1.479.443z"/>
        <path fill="#F7F7F7" d="M7.45 17.344s-.215-.02-.485-.908a1537.47 1537.47 0 0 1-1.637-5.557l10.876-7.191s.627-.398.605 0c0 0 .112.07-.224.397s-8.544 8.009-8.544 8.009"/>
        <path fill="#D1D1D1" d="M10.857 14.499L7.93 17.277s-.228.18-.478.067l.56-5.16"/>
    </g>
</svg>
