<svg xmlns="http://www.w3.org/2000/svg" xmlns:xlink="http://www.w3.org/1999/xlink" width="77" height="40" viewBox="0 0 77 40">
    <defs>
        <rect id="a" width="77" height="40" rx="2"/>
    </defs>
    <g fill="none" fill-rule="evenodd">
        <g>
            <use fill="#4C75A3" xlink:href="#a"/>
            <rect width="76" height="39" x=".5" y=".5" stroke="#162839" stroke-opacity=".1" rx="2"/>
        </g>
        <path fill="#FFF" fill-rule="nonzero" d="M39.772 24.077s.289-.032.436-.19c.136-.146.132-.42.132-.42s-.02-1.281.576-1.47c.586-.186 1.339 1.238 2.137 1.786.603.415 1.062.324 1.062.324l2.133-.03s1.117-.069.587-.947c-.043-.071-.308-.649-1.586-1.835-1.339-1.242-1.16-1.041.452-3.189.982-1.308 1.375-2.107 1.252-2.449-.117-.326-.839-.24-.839-.24l-2.402.015s-.179-.024-.31.055c-.13.077-.213.258-.213.258s-.38 1.012-.887 1.873c-1.07 1.816-1.497 1.912-1.673 1.8-.406-.263-.304-1.056-.304-1.62 0-1.76.267-2.494-.52-2.684-.262-.064-.454-.105-1.122-.112-.857-.009-1.583.003-1.993.204-.274.134-.485.432-.356.45.159.02.518.096.71.355.245.335.237 1.088.237 1.088s.14 2.072-.331 2.33c-.324.176-.768-.185-1.722-1.833a15.308 15.308 0 0 1-.857-1.777s-.071-.174-.198-.268c-.154-.113-.37-.149-.37-.149l-2.282.016s-.343.01-.469.158c-.112.132-.009.407-.009.407s1.787 4.181 3.811 6.288c1.856 1.933 3.963 1.806 3.963 1.806h.955z"/>
    </g>
</svg>
