<svg xmlns="http://www.w3.org/2000/svg" width="26" height="26" viewBox="0 0 26 26">
    <path fill="none" fill-rule="evenodd" stroke="#302949" stroke-linecap="round" stroke-linejoin="round" d="M13 1c6.627 0 12 5.373 12 12s-5.373 12-12 12S1 19.627 1 13 6.373 1 13 1zM9.25 18.426c0 .86-.746 1.488-1.607 1.488-.86 0-1.557-.697-1.557-1.557s.617-1.607 1.477-1.607h1.688v1.676zm10.688-.176c0 .86-.721 1.664-1.581 1.664s-1.606-.804-1.606-1.664V10c0-2.098-1.653-3.914-3.75-3.914-2.099 0-3.75 1.816-3.75 3.914v8.25"/>
</svg>
