<svg xmlns="http://www.w3.org/2000/svg" width="50" height="50" viewBox="0 0 50 50">
    <g fill="none" fill-rule="evenodd" transform="translate(1 1)">
        <circle cx="24" cy="24" r="24" stroke="#979797" stroke-opacity=".4"/>
        <path fill="#102FE2" stroke="#102FE2" stroke-width=".5" d="M31.847 23.686l-3.194-2.582a.547.547 0 0 0-.76 0 .515.515 0 0 0 0 .742l2.767 2.238-2.768 2.238a.515.515 0 0 0 0 .741c.21.205.55.205.76 0l3.195-2.582a.511.511 0 0 0 .152-.397.51.51 0 0 0-.152-.398zm-11.74 2.635l-2.767-2.237 2.768-2.238a.515.515 0 0 0 0-.742.546.546 0 0 0-.76 0l-3.195 2.582a.51.51 0 0 0-.152.398.511.511 0 0 0 .152.397l3.194 2.582c.21.205.551.205.76 0a.515.515 0 0 0 0-.742zm7.604-9.25a.54.54 0 0 0-.728.19l-6.665 12.844c-.148.25-.087.632.195.714.344.1.581.059.728-.191l6.665-12.844a.517.517 0 0 0-.195-.714z"/>
    </g>
</svg>
