<svg xmlns="http://www.w3.org/2000/svg" width="50" height="50" viewBox="0 0 50 50">
    <g fill="none" fill-rule="evenodd" transform="translate(1 1)">
        <circle cx="24" cy="24" r="24" stroke="#979797" stroke-opacity=".4"/>
        <path fill="#102FE2" d="M23.045 29.88a3.481 3.481 0 0 1-4.884 0 3.388 3.388 0 0 1 0-4.829l7.326-7.245a2.321 2.321 0 0 1 3.257 0 2.26 2.26 0 0 1 0 3.22l-7.327 7.245a1.16 1.16 0 0 1-1.628 0 1.13 1.13 0 0 1 0-1.61l6.513-6.44-.815-.805-6.512 6.44c-.9.889-.9 2.33 0 3.22a2.322 2.322 0 0 0 3.256 0l7.326-7.245a3.389 3.389 0 0 0 0-4.83 3.481 3.481 0 0 0-4.884 0l-7.734 7.647c-1.376 1.814-1.252 4.396.407 6.038 1.66 1.642 4.272 1.764 6.078.374L32 22.636l-.814-.805-8.14 8.05z"/>
    </g>
</svg>
