<svg xmlns="http://www.w3.org/2000/svg" width="50" height="50" viewBox="0 0 50 50">
    <g fill="none" fill-rule="evenodd" transform="translate(1 1)">
        <circle cx="24" cy="24" r="24" stroke="#979797" stroke-opacity=".4"/>
        <path fill="#102FE2" stroke="#102FE2" stroke-width=".5" d="M25.662 22.346a.523.523 0 0 0-.739 0l-2.585 2.585a.523.523 0 0 0 .739.74l2.585-2.586a.523.523 0 0 0 0-.74zm5.726-4.996l-.739-.738a2.09 2.09 0 0 0-2.955 0L24 20.306a2.08 2.08 0 0 0-.534 2.012l4.966-4.968a1.046 1.046 0 0 1 1.478 0l.74.74c.407.408.407 1.07 0 1.477l-4.968 4.967A2.082 2.082 0 0 0 27.694 24l3.694-3.694a2.09 2.09 0 0 0 0-2.956zM19.568 30.65a1.044 1.044 0 0 1-1.479 0l-.738-.739a1.045 1.045 0 0 1 0-1.478l4.967-4.966a2.082 2.082 0 0 0-2.012.534l-3.694 3.694a2.088 2.088 0 0 0 0 2.955l.739.739a2.09 2.09 0 0 0 2.955 0L24 27.694a2.081 2.081 0 0 0 .534-2.012l-4.967 4.967z"/>
    </g>
</svg>
