<svg xmlns="http://www.w3.org/2000/svg" width="50" height="50" viewBox="0 0 50 50">
    <g fill="none" fill-rule="evenodd" transform="translate(1 1)">
        <circle cx="24" cy="24" r="24" stroke="#979797" stroke-opacity=".4"/>
        <g fill="#102FE2">
            <path d="M22 26.174l4.364-2.087L22 22z"/>
            <path d="M17.455 29.522v-11.13h13.09l.002 11.13H17.455zM30.545 17h-13.09c-.803 0-1.455.623-1.455 1.391v11.13c0 .768.652 1.392 1.455 1.392h13.09c.803 0 1.455-.624 1.455-1.391v-11.13c0-.769-.652-1.392-1.455-1.392z"/>
            <path d="M19 20.391h1.455V19H19zM23.455 19H22v1.391h1.455zM26.455 19H25v1.391h1.455zM28 20.391h1.455V19H28zM19 28.391h1.455V27H19zM22 28.391h1.455V27H22zM25 28.391h1.455V27H25zM28 28.391h1.455V27H28z"/>
        </g>
    </g>
</svg>
