<svg xmlns="http://www.w3.org/2000/svg" width="50" height="50" viewBox="0 0 50 50">
    <g fill="none" fill-rule="evenodd" transform="translate(1 1)">
        <circle cx="24" cy="24" r="24" stroke="#979797" stroke-opacity=".4"/>
        <path d="M16 16h16v16H16z"/>
        <path fill="#102FE2" d="M16.667 30h2.666v-8h-2.666v8zm14.666-7.333c0-.734-.6-1.334-1.333-1.334h-4.207l.634-3.046.02-.214c0-.273-.114-.526-.294-.706l-.706-.7-4.387 4.393c-.247.24-.393.573-.393.94v6.667c0 .733.6 1.333 1.333 1.333h6c.553 0 1.027-.333 1.227-.813l2.013-4.7c.06-.154.093-.314.093-.487v-1.273l-.006-.007.006-.053z"/>
    </g>
</svg>
