<svg xmlns="http://www.w3.org/2000/svg" width="16" height="12" viewBox="0 0 16 12">
    <g fill="none" fill-rule="evenodd">
        <path d="M0-3h16v16H0z"/>
        <path fill="#FFF" fill-rule="nonzero" d="M14 .333C13.26.1 12.447 0 11.667 0c-1.3 0-2.7.267-3.667 1-.967-.733-2.367-1-3.667-1-1.3 0-2.7.267-3.666 1v9.767c0 .166.166.333.333.333.067 0 .1-.033.167-.033.9-.434 2.2-.734 3.166-.734 1.3 0 2.7.267 3.667 1 .9-.566 2.533-1 3.667-1 1.1 0 2.233.2 3.166.7.067.034.1.034.167.034a.358.358 0 0 0 .333-.334V1C14.933.7 14.5.5 14 .333zm0 9C13.267 9.1 12.467 9 11.667 9 10.533 9 8.9 9.433 8 10V2.333c.9-.566 2.533-1 3.667-1 .8 0 1.6.1 2.333.334v7.666z"/>
    </g>
</svg>
