<svg xmlns="http://www.w3.org/2000/svg" width="250" height="44" viewBox="0 0 250 44">
    <g fill="none" fill-rule="evenodd">
        <path fill="#1D32A8" fill-rule="nonzero" d="M0 0h82.278v44H0z"/>
        <path fill="#FFF" d="M9.494 12.924h3.404v5.834l-.207 1.899h.207c.312-.56.798-1.04 1.456-1.438.658-.398 1.473-.597 2.443-.597.815 0 1.59.176 2.326.529a6.235 6.235 0 0 1 1.95 1.465c.563.624 1.009 1.37 1.338 2.239.33.868.494 1.817.494 2.848s-.165 1.981-.494 2.85c-.329.868-.775 1.614-1.338 2.238a6.235 6.235 0 0 1-1.95 1.465 5.32 5.32 0 0 1-2.326.529c-.97 0-1.785-.199-2.443-.597-.658-.398-1.144-.877-1.456-1.438h-.207v1.6H9.494V12.925zm6.601 16.578c.45 0 .88-.09 1.287-.271.407-.181.767-.434 1.079-.76.311-.326.563-.724.753-1.194.19-.47.286-.995.286-1.574 0-.578-.095-1.103-.286-1.573a3.725 3.725 0 0 0-.753-1.194 3.383 3.383 0 0 0-1.08-.76 3.275 3.275 0 0 0-2.573-.014c-.406.173-.766.421-1.078.747a3.725 3.725 0 0 0-.754 1.194c-.19.47-.285 1.004-.285 1.6 0 .597.095 1.13.285 1.601.191.47.442.868.754 1.194.312.326.672.574 1.079.746.407.172.836.258 1.286.258zM33.9 30.614h-.208a4.399 4.399 0 0 1-1.611 1.588c-.676.388-1.447.583-2.313.583-1.612 0-2.812-.516-3.6-1.547-.789-1.03-1.183-2.405-1.183-4.124v-8.058h3.405v7.624c0 .959.204 1.669.61 2.13.408.461 1.002.692 1.781.692.468 0 .88-.104 1.235-.312.355-.208.658-.488.91-.841a3.88 3.88 0 0 0 .571-1.248c.13-.48.195-.99.195-1.533v-6.512h3.405v13.295H33.9v-1.737zm11.982 8.032c-.901 0-1.702-.123-2.404-.367a6.723 6.723 0 0 1-1.833-.95 6.24 6.24 0 0 1-1.3-1.288 5.096 5.096 0 0 1-.753-1.411l3.25-1.357c.242.706.64 1.253 1.195 1.642.554.389 1.17.583 1.845.583 1.074 0 1.923-.348 2.547-1.044.624-.697.936-1.67.936-2.917v-.923h-.208a4.218 4.218 0 0 1-1.573 1.37c-.65.335-1.416.502-2.3.502a5.333 5.333 0 0 1-2.222-.488 5.833 5.833 0 0 1-1.91-1.397c-.555-.606-1.005-1.334-1.352-2.184-.346-.85-.52-1.8-.52-2.85 0-1.048.174-2.002.52-2.862.347-.859.797-1.591 1.352-2.197a5.833 5.833 0 0 1 1.91-1.398 5.333 5.333 0 0 1 2.222-.488c.884 0 1.65.167 2.3.502.65.334 1.174.791 1.573 1.37h.208v-1.438h3.249v12.345c0 1.122-.165 2.13-.494 3.025-.33.896-.789 1.656-1.378 2.28a5.961 5.961 0 0 1-2.118 1.438c-.823.334-1.737.502-2.742.502zm.13-9.361c.416 0 .827-.082 1.235-.244a3.132 3.132 0 0 0 1.078-.72c.312-.316.563-.705.754-1.166.19-.461.286-.99.286-1.587s-.096-1.13-.286-1.601a3.565 3.565 0 0 0-.754-1.18 3.132 3.132 0 0 0-1.078-.72 3.203 3.203 0 0 0-2.456 0 3.076 3.076 0 0 0-1.066.733 3.76 3.76 0 0 0-.754 1.18c-.19.462-.286.99-.286 1.588 0 .597.095 1.126.286 1.587.19.461.442.85.754 1.167a3.203 3.203 0 0 0 2.287.963zm11.41-12.155a2.162 2.162 0 0 1-1.546-.665 2.31 2.31 0 0 1-.468-.72 2.313 2.313 0 0 1-.17-.894c0-.326.057-.625.17-.896a2.31 2.31 0 0 1 .468-.719 2.162 2.162 0 0 1 1.546-.665c.606 0 1.126.222 1.56.665.433.443.65.981.65 1.615 0 .633-.217 1.17-.65 1.614a2.103 2.103 0 0 1-1.56.665zm-1.69 15.22V19.057h3.405v13.295h-3.404zm9.721-11.558h.208a4.399 4.399 0 0 1 1.612-1.587c.675-.389 1.446-.583 2.313-.583.797 0 1.499.136 2.105.407a3.873 3.873 0 0 1 1.495 1.153c.39.497.684 1.094.883 1.79.2.697.3 1.47.3 2.32v8.059h-3.406v-7.624c0-.959-.203-1.669-.61-2.13-.408-.461-1.001-.692-1.78-.692-.469 0-.88.104-1.235.312a2.926 2.926 0 0 0-.91.841 3.88 3.88 0 0 0-.572 1.248c-.13.48-.195.99-.195 1.533v6.512h-3.405V19.056h3.197v1.736z"/>
        <path fill="#06161C" d="M95.008 20.99h.21a4.364 4.364 0 0 1 1.632-1.535c.684-.376 1.465-.564 2.342-.564.806 0 1.517.13 2.13.393a3.903 3.903 0 0 1 1.513 1.116c.395.481.693 1.059.895 1.732.202.674.303 1.422.303 2.245v7.796h-3.447v-7.376c0-.928-.206-1.615-.618-2.06-.412-.447-1.013-.67-1.803-.67-.473 0-.89.1-1.25.302-.359.2-.666.472-.92.813a3.679 3.679 0 0 0-.579 1.208 5.412 5.412 0 0 0-.197 1.483v6.3h-3.447V19.31h3.236v1.68zm24.074 8.085a7.213 7.213 0 0 1-2.408 2.546c-1.008.648-2.24.972-3.696.972-.982 0-1.89-.171-2.723-.512a6.554 6.554 0 0 1-2.17-1.43 6.536 6.536 0 0 1-1.435-2.166c-.342-.832-.513-1.746-.513-2.743 0-.928.167-1.807.5-2.638a6.724 6.724 0 0 1 1.395-2.18 6.742 6.742 0 0 1 2.118-1.482c.815-.368 1.714-.551 2.696-.551 1.035 0 1.956.17 2.763.511a5.636 5.636 0 0 1 2.026 1.418 6.096 6.096 0 0 1 1.236 2.14 8.24 8.24 0 0 1 .421 2.677v.315a1.763 1.763 0 0 0-.026.288 1.472 1.472 0 0 0-.026.29h-9.709c.07.524.215.975.434 1.35.22.377.492.692.816.946.325.254.68.437 1.066.551.386.114.78.17 1.184.17.789 0 1.442-.179 1.96-.537a3.93 3.93 0 0 0 1.223-1.352l2.868 1.417zm-3.131-4.987a2.223 2.223 0 0 0-.224-.761 2.68 2.68 0 0 0-.578-.788 3.03 3.03 0 0 0-.948-.604c-.377-.157-.828-.236-1.355-.236-.736 0-1.385.21-1.947.63-.56.42-.955 1.006-1.183 1.759h6.235zm8.787-3.097h.211a4.364 4.364 0 0 1 1.631-1.536c.684-.376 1.465-.564 2.342-.564.807 0 1.517.13 2.13.393a3.903 3.903 0 0 1 1.514 1.116c.394.481.693 1.059.894 1.732.202.674.303 1.422.303 2.245v7.796h-3.447v-7.376c0-.928-.206-1.615-.618-2.06-.412-.447-1.013-.67-1.802-.67-.474 0-.89.1-1.25.302-.36.2-.667.472-.92.813a3.679 3.679 0 0 0-.58 1.208 5.412 5.412 0 0 0-.197 1.483v6.3h-3.447V19.31h3.236v1.68zm17.654-7.613h3.447v5.644l-.21 1.837h.21c.316-.542.807-1.006 1.473-1.39.667-.386 1.491-.578 2.474-.578.824 0 1.609.17 2.354.511a6.295 6.295 0 0 1 1.974 1.418 6.73 6.73 0 0 1 1.354 2.165c.334.84.5 1.76.5 2.757 0 .997-.166 1.916-.5 2.756a6.73 6.73 0 0 1-1.354 2.165 6.295 6.295 0 0 1-1.974 1.418 5.592 5.592 0 0 1-2.354.512c-.983 0-1.807-.193-2.474-.578-.666-.385-1.157-.849-1.473-1.391h-.21v1.549h-3.237V13.378zm6.683 16.038c.456 0 .89-.087 1.302-.262.413-.175.777-.42 1.092-.735.316-.315.57-.7.763-1.155.193-.455.29-.962.29-1.522s-.097-1.068-.29-1.523a3.587 3.587 0 0 0-.763-1.155 3.429 3.429 0 0 0-1.092-.735 3.449 3.449 0 0 0-2.605-.013 3.255 3.255 0 0 0-1.091.722c-.316.315-.57.7-.763 1.155-.193.455-.29.971-.29 1.549 0 .577.097 1.093.29 1.548.193.455.447.84.763 1.155.316.315.68.556 1.092.722.412.166.846.25 1.302.25zm17.049 1.392h-.21c-.404.49-.89.91-1.46 1.26s-1.303.525-2.198.525c-.666 0-1.293-.11-1.88-.329a4.896 4.896 0 0 1-1.54-.905 4.05 4.05 0 0 1-1.026-1.391 4.278 4.278 0 0 1-.368-1.785c0-.665.131-1.265.394-1.798a4.09 4.09 0 0 1 1.105-1.378 4.988 4.988 0 0 1 1.671-.88 6.944 6.944 0 0 1 2.092-.302c.842 0 1.534.066 2.078.197.544.132.991.267 1.342.407v-.394c0-.682-.272-1.246-.816-1.693-.543-.446-1.219-.669-2.025-.669-1.193 0-2.202.499-3.026 1.496l-2.5-1.706c1.369-1.715 3.237-2.572 5.604-2.572 2 0 3.526.468 4.578 1.404 1.053.936 1.579 2.323 1.579 4.16v7.718h-3.394v-1.365zm0-3.859a7.136 7.136 0 0 0-1.25-.46 5.49 5.49 0 0 0-1.407-.17c-.825 0-1.46.18-1.908.538-.447.359-.67.8-.67 1.326 0 .525.214.945.644 1.26.43.315.925.472 1.486.472.456 0 .877-.083 1.263-.25.386-.165.715-.384.987-.655.272-.272.482-.587.631-.945.15-.36.224-.731.224-1.116zm11.234 5.644c-.842 0-1.591-.105-2.25-.315a6.21 6.21 0 0 1-1.71-.827 5.415 5.415 0 0 1-1.223-1.181 5.685 5.685 0 0 1-.763-1.352l3.079-1.313c.298.665.697 1.16 1.197 1.483.5.324 1.056.486 1.67.486.632 0 1.132-.114 1.5-.341.368-.228.552-.499.552-.814 0-.35-.153-.634-.46-.853-.307-.219-.837-.416-1.592-.59l-1.815-.394a6.367 6.367 0 0 1-1.25-.42 4.89 4.89 0 0 1-1.17-.735 3.727 3.727 0 0 1-.869-1.077c-.228-.42-.342-.91-.342-1.47 0-.63.136-1.19.408-1.68.272-.49.645-.905 1.118-1.246a5.36 5.36 0 0 1 1.67-.788 7.457 7.457 0 0 1 2.066-.275c1.228 0 2.324.24 3.289.721.965.482 1.675 1.247 2.131 2.297l-2.973 1.208c-.246-.508-.605-.875-1.079-1.103a3.256 3.256 0 0 0-1.42-.341c-.492 0-.921.1-1.29.302-.368.201-.552.46-.552.774 0 .298.153.534.46.709.307.175.724.332 1.25.472l1.973.473c1.316.315 2.294.818 2.934 1.51.64.69.96 1.509.96 2.453 0 .56-.131 1.094-.395 1.602a4.292 4.292 0 0 1-1.118 1.352 5.484 5.484 0 0 1-1.736.931c-.675.228-1.425.342-2.25.342zm9.025-10.343h-2.263v-2.94h2.263v-3.937h3.446v3.938h3.157v2.94h-3.157v4.987c0 .297.03.573.092.827.062.253.18.468.355.643.246.28.597.42 1.053.42.298 0 .535-.03.71-.092.176-.061.342-.145.5-.25l.974 3.02a5.691 5.691 0 0 1-1.303.432 7.605 7.605 0 0 1-1.539.145c-.649 0-1.232-.101-1.75-.302a3.729 3.729 0 0 1-1.302-.827c-.824-.788-1.236-1.908-1.236-3.36V22.25zm17.075 8.558h-.21c-.404.49-.89.91-1.46 1.26-.571.35-1.303.525-2.198.525-.666 0-1.293-.11-1.881-.329a4.896 4.896 0 0 1-1.54-.905 4.05 4.05 0 0 1-1.025-1.391 4.278 4.278 0 0 1-.369-1.785c0-.665.132-1.265.395-1.798a4.09 4.09 0 0 1 1.105-1.378 4.988 4.988 0 0 1 1.67-.88 6.944 6.944 0 0 1 2.092-.302c.842 0 1.535.066 2.079.197.544.132.991.267 1.342.407v-.394c0-.682-.272-1.246-.816-1.693-.544-.446-1.219-.669-2.026-.669-1.192 0-2.201.499-3.025 1.496l-2.5-1.706c1.368-1.715 3.236-2.572 5.604-2.572 2 0 3.526.468 4.578 1.404 1.053.936 1.579 2.323 1.579 4.16v7.718h-3.394v-1.365zm0-3.859a7.136 7.136 0 0 0-1.25-.46 5.49 5.49 0 0 0-1.408-.17c-.824 0-1.46.18-1.907.538-.447.359-.67.8-.67 1.326 0 .525.214.945.644 1.26.43.315.925.472 1.486.472.456 0 .877-.083 1.263-.25.386-.165.715-.384.987-.655.272-.272.482-.587.631-.945.15-.36.224-.731.224-1.116zm6.13 5.224V13.378h3.447v18.795h-3.447zm14.339-1.365h-.21c-.404.49-.89.91-1.46 1.26s-1.303.525-2.198.525c-.666 0-1.293-.11-1.88-.329a4.896 4.896 0 0 1-1.54-.905 4.05 4.05 0 0 1-1.026-1.391 4.278 4.278 0 0 1-.368-1.785c0-.665.131-1.265.394-1.798a4.09 4.09 0 0 1 1.105-1.378 4.988 4.988 0 0 1 1.67-.88 6.944 6.944 0 0 1 2.093-.302c.842 0 1.534.066 2.078.197.544.132.991.267 1.342.407v-.394c0-.682-.272-1.246-.816-1.693-.543-.446-1.219-.669-2.026-.669-1.192 0-2.2.499-3.025 1.496l-2.5-1.706c1.368-1.715 3.236-2.572 5.604-2.572 2 0 3.526.468 4.578 1.404 1.053.936 1.579 2.323 1.579 4.16v7.718h-3.394v-1.365zm0-3.859a7.136 7.136 0 0 0-1.25-.46 5.49 5.49 0 0 0-1.407-.17c-.825 0-1.46.18-1.908.538-.447.359-.67.8-.67 1.326 0 .525.214.945.644 1.26.43.315.925.472 1.486.472.456 0 .877-.083 1.263-.25.386-.165.715-.384.987-.655.272-.272.482-.587.631-.945.15-.36.224-.731.224-1.116zm15.733 3.675h-.21c-.316.542-.807 1.006-1.474 1.391-.666.385-1.49.578-2.473.578-.824 0-1.61-.171-2.355-.512a6.295 6.295 0 0 1-1.973-1.418 6.73 6.73 0 0 1-1.355-2.165c-.333-.84-.5-1.759-.5-2.756 0-.998.167-1.917.5-2.757a6.73 6.73 0 0 1 1.355-2.165 6.295 6.295 0 0 1 1.973-1.418 5.592 5.592 0 0 1 2.355-.511c.982 0 1.807.192 2.473.577.667.385 1.158.849 1.474 1.391h.21l-.21-1.837v-5.644h3.446v18.795h-3.236v-1.55zm-3.446-1.208c.456 0 .89-.083 1.302-.249a3.254 3.254 0 0 0 1.092-.722c.316-.315.57-.7.763-1.155.193-.455.29-.97.29-1.548 0-.578-.097-1.094-.29-1.55a3.587 3.587 0 0 0-.763-1.154 3.254 3.254 0 0 0-1.092-.722 3.449 3.449 0 0 0-2.605.013c-.412.175-.776.42-1.092.735-.315.315-.57.7-.763 1.155-.193.455-.289.963-.289 1.523 0 .56.096 1.067.29 1.522a3.429 3.429 0 0 0 1.855 1.89c.411.175.846.262 1.302.262zm11.55-11.97c-.299 0-.584-.056-.855-.17a2.193 2.193 0 0 1-1.184-1.168 2.151 2.151 0 0 1-.171-.866 2.151 2.151 0 0 1 .644-1.562c.202-.201.439-.359.71-.472.272-.114.557-.171.856-.171.614 0 1.14.214 1.578.643.439.429.658.95.658 1.562 0 .612-.22 1.133-.658 1.562a2.178 2.178 0 0 1-1.578.643zm-1.71 14.727V19.31h3.446v12.862h-3.446z"/>
    </g>
</svg>
