<svg xmlns="http://www.w3.org/2000/svg" width="129" height="28" viewBox="0 0 129 28">
    <g fill="none" fill-rule="evenodd">
        <path fill="#1D32A8" fill-rule="nonzero" d="M0 0h52v28H0z"/>
        <path fill="#FFF" d="M6 8.23h2.152v3.803l-.132 1.239h.132c.197-.366.504-.679.92-.938.416-.26.93-.39 1.544-.39.514 0 1.005.116 1.47.346.465.23.876.548 1.232.955.356.407.638.893.846 1.46.208.566.312 1.185.312 1.857 0 .672-.104 1.291-.312 1.857a4.601 4.601 0 0 1-.846 1.46 3.954 3.954 0 0 1-1.232.955c-.465.23-.956.345-1.47.345-.613 0-1.128-.13-1.544-.39-.416-.259-.723-.571-.92-.937H8.02v1.044H6V8.23zm4.172 10.809c.285 0 .556-.06.813-.177a2.14 2.14 0 0 0 .682-.496 2.44 2.44 0 0 0 .476-.778c.12-.307.181-.649.181-1.026s-.06-.72-.18-1.026a2.44 2.44 0 0 0-.477-.778 2.14 2.14 0 0 0-.682-.496 2.015 2.015 0 0 0-2.308.478 2.44 2.44 0 0 0-.476.778c-.12.307-.18.655-.18 1.044 0 .39.06.737.18 1.044.12.306.28.566.476.778a2.027 2.027 0 0 0 1.495.655zm11.252.725h-.131a2.824 2.824 0 0 1-1.019 1.035c-.427.253-.914.38-1.462.38-1.018 0-1.776-.336-2.275-1.008-.498-.673-.747-1.569-.747-2.69v-5.253h2.152v4.97c0 .626.129 1.089.386 1.39.257.3.632.45 1.125.45.296 0 .556-.067.78-.203.225-.136.417-.318.575-.548.16-.23.28-.502.362-.814a3.92 3.92 0 0 0 .123-1v-4.245h2.152v8.668h-2.02v-1.132zM28.997 25c-.57 0-1.076-.08-1.52-.239a4.204 4.204 0 0 1-1.158-.619 4.007 4.007 0 0 1-.821-.84 3.359 3.359 0 0 1-.476-.92l2.053-.885c.153.46.405.817.756 1.07.35.254.739.381 1.166.381.679 0 1.215-.227 1.61-.681.394-.454.59-1.088.59-1.902v-.601h-.13a2.693 2.693 0 0 1-.994.893c-.41.218-.896.327-1.454.327-.482 0-.95-.106-1.404-.318a3.694 3.694 0 0 1-1.208-.911 4.756 4.756 0 0 1-.854-1.424c-.219-.554-.328-1.174-.328-1.858 0-.684.109-1.306.328-1.866a4.73 4.73 0 0 1 .854-1.433c.35-.395.753-.698 1.208-.91a3.284 3.284 0 0 1 1.404-.32c.558 0 1.043.11 1.454.328.41.218.742.516.994.893h.13v-.937h2.054v8.049c0 .731-.104 1.388-.312 1.972a4.317 4.317 0 0 1-.87 1.486c-.373.407-.82.72-1.34.938a4.438 4.438 0 0 1-1.732.327zm.082-6.103a2.03 2.03 0 0 0 1.462-.628c.197-.206.356-.46.476-.76.12-.301.18-.646.18-1.036 0-.389-.06-.737-.18-1.043a2.334 2.334 0 0 0-.476-.77 2.03 2.03 0 0 0-1.462-.628 1.97 1.97 0 0 0-1.446.637 2.462 2.462 0 0 0-.476.77c-.12.3-.18.645-.18 1.034 0 .39.06.735.18 1.035.12.301.28.555.476.761a1.998 1.998 0 0 0 1.446.628zm7.211-7.925c-.186 0-.364-.038-.534-.115a1.367 1.367 0 0 1-.443-.318 1.511 1.511 0 0 1-.403-1.053 1.511 1.511 0 0 1 .402-1.053c.127-.135.274-.241.444-.318.17-.077.348-.115.534-.115.383 0 .712.144.986.433.273.29.41.64.41 1.053 0 .413-.137.764-.41 1.053a1.31 1.31 0 0 1-.986.433zm-1.068 9.924v-8.668h2.152v8.668h-2.152zm6.144-7.536h.131a2.824 2.824 0 0 1 1.019-1.035c.427-.253.914-.38 1.462-.38.503 0 .947.088 1.33.265.383.177.698.428.945.752.246.324.432.714.558 1.168.126.454.189.958.189 1.512v5.254h-2.152v-4.97c0-.626-.129-1.089-.386-1.39-.257-.3-.632-.45-1.125-.45a1.48 1.48 0 0 0-.78.203 1.873 1.873 0 0 0-.575.548c-.159.23-.28.501-.362.814a3.92 3.92 0 0 0-.123 1v4.245h-2.152v-8.668h2.02v1.132zM57.08 12.754h.136c.26-.404.61-.724 1.05-.959.44-.235.941-.352 1.505-.352.519 0 .976.082 1.37.246.395.163.72.396.973.696.254.3.446.661.575 1.082.13.421.195.888.195 1.402v4.869h-2.216V15.13c0-.58-.133-1.008-.398-1.287-.265-.278-.651-.418-1.159-.418-.304 0-.572.063-.804.189a1.859 1.859 0 0 0-.592.508 2.27 2.27 0 0 0-.372.754c-.084.29-.127.598-.127.926v3.935H55v-8.033h2.08v1.05zm15.481 5.05a4.563 4.563 0 0 1-1.548 1.59c-.649.404-1.44.606-2.377.606a4.695 4.695 0 0 1-1.751-.32 4.227 4.227 0 0 1-1.396-.893 4.075 4.075 0 0 1-.922-1.353c-.22-.519-.33-1.09-.33-1.713a4.275 4.275 0 0 1 1.218-3.008 4.279 4.279 0 0 1 3.096-1.27c.666 0 1.258.106 1.777.32.519.212.953.507 1.303.885.35.377.614.822.795 1.336.18.513.27 1.07.27 1.672v.196a1.07 1.07 0 0 0-.017.18.893.893 0 0 0-.016.181H66.42c.045.328.138.61.279.844a2.068 2.068 0 0 0 1.21.935c.248.07.501.106.76.106.508 0 .929-.112 1.261-.336.333-.224.595-.505.787-.844l1.844.885zm-2.013-3.115c-.011-.143-.06-.301-.144-.476a1.677 1.677 0 0 0-.372-.492 1.957 1.957 0 0 0-.61-.377 2.315 2.315 0 0 0-.87-.147c-.474 0-.892.13-1.253.393-.36.262-.614.629-.76 1.099h4.009zm5.65-1.935h.136c.26-.404.609-.724 1.049-.959.44-.235.941-.352 1.505-.352.52 0 .976.082 1.37.246.396.163.72.396.974.696.253.3.445.661.575 1.082.13.421.194.888.194 1.402v4.869h-2.216V15.13c0-.58-.132-1.008-.397-1.287-.266-.278-.652-.418-1.16-.418-.304 0-.572.063-.803.189a1.859 1.859 0 0 0-.592.508 2.27 2.27 0 0 0-.372.754c-.085.29-.127.598-.127.926v3.935h-2.216v-8.033h2.08v1.05zM87.551 8h2.216v3.525l-.136 1.147h.136c.203-.339.519-.628.947-.869.429-.24.959-.36 1.59-.36.53 0 1.035.106 1.515.32.48.212.902.507 1.269.885.366.377.657.827.87 1.352a4.51 4.51 0 0 1 .322 1.721 4.51 4.51 0 0 1-.321 1.722 4.187 4.187 0 0 1-.871 1.352c-.367.377-.79.672-1.27.885-.479.213-.983.32-1.513.32-.632 0-1.162-.12-1.59-.36-.43-.241-.745-.53-.948-.87h-.136v.968h-2.08V8zm4.297 10.016a2.21 2.21 0 0 0 1.54-.623c.202-.196.366-.437.49-.72.124-.285.186-.602.186-.952s-.062-.666-.186-.95a2.237 2.237 0 0 0-.49-.722 2.21 2.21 0 0 0-1.54-.623c-.294 0-.573.052-.838.156-.265.104-.499.254-.702.45a2.237 2.237 0 0 0-.49.722 2.395 2.395 0 0 0-.187.967c0 .361.062.683.187.968.124.284.287.524.49.72.203.198.437.348.702.452.265.103.544.155.838.155zm10.963.87h-.136c-.26.305-.572.568-.939.786-.366.219-.837.328-1.412.328a3.53 3.53 0 0 1-1.21-.205 3.17 3.17 0 0 1-.99-.565 2.536 2.536 0 0 1-.66-.87 2.606 2.606 0 0 1-.236-1.114c0-.415.084-.79.253-1.123.17-.333.407-.62.711-.86a3.24 3.24 0 0 1 1.074-.55c.412-.126.86-.188 1.345-.188.542 0 .987.04 1.337.123.35.082.637.166.863.254v-.246c0-.426-.175-.779-.525-1.058-.35-.278-.784-.418-1.302-.418-.767 0-1.416.312-1.946.935l-1.607-1.066c.88-1.07 2.08-1.606 3.603-1.606 1.286 0 2.267.292 2.944.877.677.584 1.015 1.45 1.015 2.598v4.82h-2.182v-.853zm0-2.41a4.677 4.677 0 0 0-.804-.287 3.63 3.63 0 0 0-.905-.107c-.53 0-.939.112-1.227.336-.287.224-.431.5-.431.828 0 .328.138.59.414.787.277.197.595.295.956.295a2.083 2.083 0 0 0 1.447-.566 1.8 1.8 0 0 0 .55-1.287zM110.035 20a4.883 4.883 0 0 1-1.447-.197 4.044 4.044 0 0 1-1.1-.516 3.524 3.524 0 0 1-1.277-1.582l1.98-.82c.191.416.448.724.77.926.32.203.679.304 1.074.304.406 0 .727-.071.964-.213.237-.142.355-.312.355-.509 0-.218-.098-.396-.296-.532-.197-.137-.538-.26-1.023-.37l-1.168-.245a4.179 4.179 0 0 1-.803-.262 3.16 3.16 0 0 1-.753-.46 2.342 2.342 0 0 1-.558-.672 1.85 1.85 0 0 1-.22-.918c0-.393.087-.743.262-1.049.175-.306.414-.565.719-.778a3.492 3.492 0 0 1 1.074-.492 4.929 4.929 0 0 1 1.328-.172c.79 0 1.495.15 2.115.45.62.301 1.077.78 1.37 1.435l-1.911.754a1.443 1.443 0 0 0-.694-.689 2.145 2.145 0 0 0-.914-.213c-.315 0-.592.063-.829.189-.236.126-.355.287-.355.483 0 .186.099.334.296.443.198.11.466.208.804.295l1.269.295c.846.197 1.474.511 1.886.943.412.432.618.942.618 1.533 0 .35-.085.683-.254 1a2.7 2.7 0 0 1-.72.844 3.56 3.56 0 0 1-1.116.582 4.634 4.634 0 0 1-1.446.213zm5.803-6.459h-1.455v-1.836h1.455v-2.46h2.216v2.46h2.03v1.836h-2.03v3.115c0 .186.02.358.06.516.039.159.115.292.228.402.157.175.383.262.676.262.192 0 .344-.02.457-.057.113-.039.22-.09.322-.156l.625 1.885c-.259.12-.538.21-.837.27a5.03 5.03 0 0 1-.99.09c-.417 0-.792-.062-1.125-.188a2.408 2.408 0 0 1-.837-.516c-.53-.492-.795-1.191-.795-2.098V13.54zm10.98 5.344h-.136c-.26.306-.572.569-.939.787-.366.219-.837.328-1.412.328a3.53 3.53 0 0 1-1.21-.205 3.17 3.17 0 0 1-.99-.565 2.536 2.536 0 0 1-.66-.87 2.606 2.606 0 0 1-.236-1.114c0-.415.084-.79.253-1.123.17-.333.406-.62.71-.86a3.24 3.24 0 0 1 1.075-.55c.412-.126.86-.188 1.345-.188.542 0 .987.04 1.337.123.35.082.637.166.863.254v-.246c0-.426-.175-.779-.525-1.058-.35-.278-.784-.418-1.303-.418-.767 0-1.415.312-1.945.935l-1.607-1.066c.88-1.07 2.08-1.606 3.603-1.606 1.286 0 2.267.292 2.944.877.677.584 1.015 1.45 1.015 2.598v4.82h-2.182v-.853zm0-2.41a4.677 4.677 0 0 0-.804-.286 3.63 3.63 0 0 0-.905-.107c-.53 0-.94.112-1.227.336-.287.224-.431.5-.431.828 0 .328.138.59.414.787.277.197.595.295.956.295a2.083 2.083 0 0 0 1.447-.566 1.8 1.8 0 0 0 .55-1.287z"/>
    </g>
</svg>
