<svg xmlns="http://www.w3.org/2000/svg" width="424" height="470" viewBox="0 0 424 470">
    <g fill="none" fill-rule="nonzero">
        <path fill="#AAB2BD" d="M0 152h22v38H0z"/>
        <path fill="#434A54" d="M52 151.571V197H22v-53h29.927z"/>
        <path fill="#AAB2BD" d="M402 152h22v38h-22z"/>
        <path fill="#434A54" d="M401 189.429V197h-30v-53h30z"/>
        <path fill="#CCD1D9" d="M371 15v15H53V15c0-8.324 6.743-15 15.15-15h287.7C364.257 0 371 6.676 371 15z"/>
        <path fill="#E6E9ED" d="M242.256 197h-15.147v-22.773h-30.218V197H53V30h318v167z"/>
        <path fill="#AAB2BD" d="M212.5 181c-4.15 0-7.5-3.276-7.5-7.333v-7.334c0-4.057 3.35-7.333 7.5-7.333s7.5 3.276 7.5 7.333v7.334c0 4.057-3.35 7.333-7.5 7.333z"/>
        <path fill="#CCD1D9" d="M227 196.56v.44h-30v-22h30z"/>
        <path fill="#AAB2BD" d="M227.75 197H243c0 16.575-13.649 30-30.5 30S182 213.575 182 197h45.75z"/>
        <path fill="#CCD1D9" d="M264.843 227.5a60.344 60.344 0 0 1-22.343 22.343C233.58 255.025 223.132 258 212 258c-11.132 0-21.58-2.975-30.5-8.157a60.344 60.344 0 0 1-22.343-22.343C153.975 218.58 151 208.132 151 197h30.5c0 16.851 13.649 30.5 30.5 30.5s30.5-13.649 30.5-30.5H273c0 11.132-2.975 21.58-8.157 30.5z"/>
        <path fill="#434A54" d="M272.754 197H361c-30.681 49.8-85.97 83-149 83S93.681 246.8 63 197h88.246c0 11.016 2.963 21.354 8.125 30.182a59.91 59.91 0 0 0 22.252 22.11c8.885 5.128 19.29 8.072 30.377 8.072s21.492-2.944 30.377-8.073a59.91 59.91 0 0 0 22.252-22.11c5.162-8.827 8.125-19.165 8.125-30.181zM0 409c0 16.851 13.553 30.5 30.286 30.5h363.428C410.447 439.5 424 425.851 424 409v30.5c0 16.851-13.553 30.5-30.286 30.5H30.286C13.553 470 0 456.351 0 439.5V409z"/>
        <path fill="#656D78" d="M360.552 197h25.59L424 409.625C424 426.407 410.447 440 393.714 440H30.286C13.553 440 0 426.407 0 409.625L37.857 197h25.59c30.59 50.12 85.712 83.531 148.553 83.531 62.841 0 117.963-33.412 148.552-83.531z"/>
        <path fill="#AAB2BD" d="M212.5 258c2.542 0 5.04-.187 7.5-.494V250.5c0-4.15-3.35-7.5-7.5-7.5s-7.5 3.35-7.5 7.5v7.006c2.46.307 4.958.494 7.5.494zM248 245.213l-3.612-6.317c-2.13-3.727-6.86-5.003-10.529-2.85-3.691 2.15-4.956 6.918-2.822 10.63l3.624 6.324a60.265 60.265 0 0 0 6.905-3.468c2.242-1.292 4.383-2.754 6.434-4.32zM251.042 219.86c-2.146 3.683-.87 8.398 2.848 10.528l6.316 3.612c1.565-2.05 3.027-4.192 4.326-6.434A60.89 60.89 0 0 0 268 220.66l-6.324-3.624c-3.726-2.134-8.47-.87-10.634 2.822zM162.322 217.037L156 220.661a60.275 60.275 0 0 0 3.467 6.905A60.059 60.059 0 0 0 163.79 234l6.315-3.612c3.725-2.13 5-6.853 2.848-10.529-2.165-3.691-6.93-4.956-10.632-2.822zM189.14 236.043c-3.69-2.145-8.398-.877-10.528 2.849L175 245.207c2.05 1.565 4.192 3.027 6.434 4.326A60.892 60.892 0 0 0 188.34 253l3.624-6.323c2.134-3.718.87-8.477-2.822-10.634z"/>
        <g fill="#CCD1D9">
            <path d="M242.368 76.143H90.603c-4.194 0-7.588-3.383-7.588-7.572 0-4.188 3.394-7.571 7.588-7.571h151.765c4.198 0 7.588 3.383 7.588 7.571 0 4.19-3.39 7.572-7.588 7.572zM158.897 106.429H90.603c-4.194 0-7.588-3.383-7.588-7.572s3.394-7.571 7.588-7.571h68.294c4.198 0 7.588 3.382 7.588 7.571s-3.39 7.572-7.588 7.572zM333.397 106.429H189.25c-4.194 0-7.588-3.383-7.588-7.572s3.394-7.571 7.588-7.571h144.147c4.194 0 7.588 3.382 7.588 7.571s-3.394 7.572-7.588 7.572zM166.485 167H90.603c-4.194 0-7.588-3.383-7.588-7.571 0-4.19 3.394-7.572 7.588-7.572h75.882c4.198 0 7.589 3.383 7.589 7.572 0 4.188-3.39 7.571-7.589 7.571zM196.809 136.714H90.603c-4.194 0-7.588-3.382-7.588-7.571s3.394-7.572 7.588-7.572H196.81c4.194 0 7.588 3.383 7.588 7.572s-3.394 7.571-7.588 7.571zM333.397 136.714H227.162c-4.198 0-7.589-3.382-7.589-7.571s3.39-7.572 7.589-7.572h106.235c4.194 0 7.588 3.383 7.588 7.572s-3.394 7.571-7.588 7.571zM333.397 76.143H272.72c-4.195 0-7.589-3.383-7.589-7.572 0-4.188 3.394-7.571 7.589-7.571h60.676c4.194 0 7.588 3.383 7.588 7.571 0 4.19-3.394 7.572-7.588 7.572z"/>
        </g>
        <path fill="#AAB2BD" d="M60.5 333c-4.15 0-7.5-3.35-7.5-7.5s3.35-7.5 7.5-7.5 7.5 3.35 7.5 7.5-3.35 7.5-7.5 7.5z"/>
        <path fill="#CCD1D9" d="M61 295c-12.904 0-23 6.584-23 15s10.096 15 23 15 23-6.584 23-15-10.096-15-23-15z"/>
        <path fill="#AAB2BD" d="M136.5 333c-4.15 0-7.5-3.35-7.5-7.5s3.35-7.5 7.5-7.5 7.5 3.35 7.5 7.5-3.35 7.5-7.5 7.5z"/>
        <path fill="#CCD1D9" d="M137 295c-12.904 0-23 6.584-23 15s10.096 15 23 15 23-6.584 23-15-10.096-15-23-15z"/>
        <path fill="#AAB2BD" d="M212.5 333c-4.15 0-7.5-3.35-7.5-7.5s3.35-7.5 7.5-7.5 7.5 3.35 7.5 7.5-3.35 7.5-7.5 7.5z"/>
        <path fill="#CCD1D9" d="M212 295c-12.904 0-23 6.584-23 15s10.096 15 23 15 23-6.584 23-15-10.096-15-23-15z"/>
        <path fill="#AAB2BD" d="M287.5 333c-4.15 0-7.5-3.35-7.5-7.5s3.35-7.5 7.5-7.5 7.5 3.35 7.5 7.5-3.35 7.5-7.5 7.5z"/>
        <path fill="#CCD1D9" d="M288 295c-12.904 0-23 6.584-23 15s10.096 15 23 15 23-6.584 23-15-10.096-15-23-15z"/>
        <path fill="#AAB2BD" d="M363.5 333c-4.15 0-7.5-3.35-7.5-7.5s3.35-7.5 7.5-7.5 7.5 3.35 7.5 7.5-3.35 7.5-7.5 7.5z"/>
        <path fill="#CCD1D9" d="M364 295c-12.904 0-23 6.584-23 15s10.096 15 23 15 23-6.584 23-15-10.096-15-23-15z"/>
        <path fill="#AAB2BD" d="M60.5 409c-4.15 0-7.5-3.35-7.5-7.5s3.35-7.5 7.5-7.5 7.5 3.35 7.5 7.5-3.35 7.5-7.5 7.5z"/>
        <path fill="#CCD1D9" d="M61 372c-12.904 0-23 6.584-23 15s10.096 15 23 15 23-6.584 23-15-10.096-15-23-15z"/>
        <path fill="#AAB2BD" d="M136.5 409c-4.15 0-7.5-3.35-7.5-7.5s3.35-7.5 7.5-7.5 7.5 3.35 7.5 7.5-3.35 7.5-7.5 7.5z"/>
        <path fill="#CCD1D9" d="M137 372c-12.904 0-23 6.584-23 15s10.096 15 23 15 23-6.584 23-15-10.096-15-23-15z"/>
        <path fill="#AAB2BD" d="M212.5 409c-4.15 0-7.5-3.35-7.5-7.5s3.35-7.5 7.5-7.5 7.5 3.35 7.5 7.5-3.35 7.5-7.5 7.5z"/>
        <path fill="#CCD1D9" d="M212 372c-12.904 0-23 6.584-23 15s10.096 15 23 15 23-6.584 23-15-10.096-15-23-15z"/>
        <path fill="#AAB2BD" d="M287.5 409c-4.15 0-7.5-3.35-7.5-7.5s3.35-7.5 7.5-7.5 7.5 3.35 7.5 7.5-3.35 7.5-7.5 7.5z"/>
        <path fill="#CCD1D9" d="M288 372c-12.904 0-23 6.584-23 15s10.096 15 23 15 23-6.584 23-15-10.096-15-23-15z"/>
        <path fill="#AAB2BD" d="M363.5 409c-4.15 0-7.5-3.35-7.5-7.5s3.35-7.5 7.5-7.5 7.5 3.35 7.5 7.5-3.35 7.5-7.5 7.5z"/>
        <path fill="#CCD1D9" d="M364 372c-12.904 0-23 6.584-23 15s10.096 15 23 15 23-6.584 23-15-10.096-15-23-15z"/>
        <path fill="#AAB2BD" d="M98.5 371c-4.15 0-7.5-3.35-7.5-7.5s3.35-7.5 7.5-7.5 7.5 3.35 7.5 7.5-3.35 7.5-7.5 7.5z"/>
        <path fill="#CCD1D9" d="M98 334c-12.904 0-23 6.584-23 15s10.096 15 23 15 23-6.584 23-15-10.096-15-23-15z"/>
        <path fill="#AAB2BD" d="M173.5 371c-4.15 0-7.5-3.35-7.5-7.5s3.35-7.5 7.5-7.5 7.5 3.35 7.5 7.5-3.35 7.5-7.5 7.5z"/>
        <path fill="#CCD1D9" d="M174 334c-12.904 0-23 6.584-23 15s10.096 15 23 15 23-6.584 23-15-10.096-15-23-15z"/>
        <path fill="#AAB2BD" d="M249.5 371c-4.15 0-7.5-3.35-7.5-7.5s3.35-7.5 7.5-7.5 7.5 3.35 7.5 7.5-3.35 7.5-7.5 7.5z"/>
        <path fill="#CCD1D9" d="M250 334c-12.904 0-23 6.584-23 15s10.096 15 23 15 23-6.584 23-15-10.096-15-23-15z"/>
        <path fill="#AAB2BD" d="M325.5 371c-4.15 0-7.5-3.35-7.5-7.5s3.35-7.5 7.5-7.5 7.5 3.35 7.5 7.5-3.35 7.5-7.5 7.5z"/>
        <path fill="#CCD1D9" d="M325 334c-12.904 0-23 6.584-23 15s10.096 15 23 15 23-6.584 23-15-10.096-15-23-15z"/>
        <path fill="#ED5565" d="M75.518 23C71.383 23 68 19.65 68 15.5S71.306 8 75.438 8h.08C79.65 8 83 11.35 83 15.5S79.65 23 75.518 23z"/>
        <path fill="#FFCE54" d="M98.518 23C94.383 23 91 19.65 91 15.5S94.306 8 98.438 8h.08C102.65 8 106 11.35 106 15.5s-3.35 7.5-7.482 7.5z"/>
        <path fill="#8CC152" d="M121.518 23c-4.135 0-7.518-3.35-7.518-7.5s3.306-7.5 7.438-7.5h.08C125.65 8 129 11.35 129 15.5s-3.35 7.5-7.482 7.5z"/>
    </g>
</svg>
